<svg width="24" height="24" viewBox="0 0 24 24" fill="none" xmlns="http://www.w3.org/2000/svg">
<path d="M7.5 22.5C8.32843 22.5 9 21.8284 9 21C9 20.1716 8.32843 19.5 7.5 19.5C6.67157 19.5 6 20.1716 6 21C6 21.8284 6.67157 22.5 7.5 22.5Z" fill="white"/>
<path d="M18 22.5C18.8284 22.5 19.5 21.8284 19.5 21C19.5 20.1716 18.8284 19.5 18 19.5C17.1716 19.5 16.5 20.1716 16.5 21C16.5 21.8284 17.1716 22.5 18 22.5Z" fill="white"/>
<path d="M3.735 2.103C3.70103 1.93304 3.60924 1.7801 3.47525 1.67017C3.34125 1.56023 3.17332 1.5001 3 1.5H0V3H2.385L5.265 17.397C5.29897 17.567 5.39076 17.7199 5.52475 17.8298C5.65875 17.9398 5.82668 17.9999 6 18H19.5V16.5H6.615L6.015 13.5H19.5C19.6706 13.5 19.8361 13.4418 19.9692 13.335C20.1023 13.2282 20.195 13.0793 20.232 12.9127L21.933 5.25H20.3977L18.8985 12H5.715L3.735 2.103Z" fill="white"/>
</svg>
